<?xml version="1.0" encoding="UTF-8"?>
<!DOCTYPE svg PUBLIC "-//W3C//DTD SVG 1.1//EN" "http://www.w3.org/Graphics/SVG/1.1/DTD/svg11.dtd">
<svg xmlns="http://www.w3.org/2000/svg" version="1.1" width="512px" height="512px" style="shape-rendering:geometricPrecision; text-rendering:geometricPrecision; image-rendering:optimizeQuality; fill-rule:evenodd; clip-rule:evenodd" xmlns:xlink="http://www.w3.org/1999/xlink">
<g><path style="opacity:0.949" fill="#000000" d="M 511.5,48.5 C 511.5,152.167 511.5,255.833 511.5,359.5C 506.726,374.1 496.726,382.933 481.5,386C 419.501,386.5 357.501,386.667 295.5,386.5C 301.962,402.545 308.629,418.545 315.5,434.5C 323.526,435.176 331.526,436.01 339.5,437C 357.891,445.281 365.058,459.447 361,479.5C 358.894,484.147 355.394,487.314 350.5,489C 287.167,489.667 223.833,489.667 160.5,489C 155.606,487.314 152.106,484.147 150,479.5C 145.942,459.447 153.109,445.281 171.5,437C 179.474,436.01 187.474,435.176 195.5,434.5C 202.738,418.697 209.404,402.697 215.5,386.5C 183.832,386.667 152.165,386.5 120.5,386C 115.465,382.987 114.298,378.82 117,373.5C 117.903,372.299 119.069,371.465 120.5,371C 240.5,370.667 360.5,370.333 480.5,370C 489.672,367.163 494.839,360.996 496,351.5C 496.831,344.144 496.665,336.811 495.5,329.5C 491.76,331.691 487.76,333.191 483.5,334C 331.5,334.667 179.5,334.667 27.5,334C 23.2398,333.191 19.2398,331.691 15.5,329.5C 14.1831,338.861 14.3498,348.194 16,357.5C 18.986,363.82 23.8193,367.987 30.5,370C 52.5,370.333 74.5,370.667 96.5,371C 101.535,374.013 102.702,378.18 100,383.5C 99.0975,384.701 97.9308,385.535 96.5,386C 72.4583,386.95 48.4583,386.616 24.5,385C 11.571,380.905 3.23769,372.405 -0.5,359.5C -0.5,255.833 -0.5,152.167 -0.5,48.5C 3.42262,34.0802 12.756,25.2469 27.5,22C 179.5,21.3333 331.5,21.3333 483.5,22C 498.244,25.2469 507.577,34.0802 511.5,48.5 Z M 29.5,37.5 C 180.167,37.3333 330.834,37.5 481.5,38C 490.267,41.0129 495.1,47.1795 496,56.5C 496.667,137.5 496.667,218.5 496,299.5C 495.1,308.82 490.267,314.987 481.5,318C 330.833,318.667 180.167,318.667 29.5,318C 20.7332,314.987 15.8999,308.82 15,299.5C 14.3333,218.5 14.3333,137.5 15,56.5C 16.0137,47.0949 20.8471,40.7616 29.5,37.5 Z M 372.5,71.5 C 402.833,71.5 433.167,71.5 463.5,71.5C 463.5,96.5 463.5,121.5 463.5,146.5C 433.167,146.5 402.833,146.5 372.5,146.5C 372.5,121.5 372.5,96.5 372.5,71.5 Z M 48.5,80.5 C 59.5,80.5 70.5,80.5 81.5,80.5C 81.5,139.167 81.5,197.833 81.5,256.5C 70.5,256.5 59.5,256.5 48.5,256.5C 48.5,197.833 48.5,139.167 48.5,80.5 Z M 254.5,149.5 C 267.772,156.471 280.772,163.971 293.5,172C 280.962,179.367 268.295,186.533 255.5,193.5C 242.705,186.533 230.038,179.367 217.5,172C 229.897,164.474 242.23,156.974 254.5,149.5 Z M 208.5,185.5 C 221.139,192.822 233.806,200.155 246.5,207.5C 247.833,222.167 247.833,236.833 246.5,251.5C 233.918,244.293 221.418,236.959 209,229.5C 208.5,214.837 208.333,200.17 208.5,185.5 Z M 301.5,185.5 C 302.661,199.994 302.828,214.661 302,229.5C 289.582,236.959 277.082,244.293 264.5,251.5C 263.167,236.833 263.167,222.167 264.5,207.5C 277.062,200.392 289.395,193.059 301.5,185.5 Z M 233.5,386.5 C 248.182,386.167 262.848,386.501 277.5,387.5C 284.371,403.407 291.371,419.241 298.5,435C 269.833,435.667 241.167,435.667 212.5,435C 219.916,419.002 226.916,402.835 233.5,386.5 Z M 178.5,451.5 C 229.834,451.333 281.168,451.5 332.5,452C 342.769,455.46 347.102,462.627 345.5,473.5C 285.5,473.5 225.5,473.5 165.5,473.5C 164.11,462.599 168.443,455.266 178.5,451.5 Z"/></g>
<g><path style="opacity:0.936" fill="#000000" d="M 364.5,55.5 C 400.92,55.0129 437.253,55.5129 473.5,57C 477.047,59.5944 478.881,63.0944 479,67.5C 479.667,95.1667 479.667,122.833 479,150.5C 478.478,156.046 475.644,159.879 470.5,162C 435.5,162.667 400.5,162.667 365.5,162C 360.449,160.283 357.615,156.783 357,151.5C 356.333,123.167 356.333,94.8333 357,66.5C 357.764,61.5824 360.264,57.9157 364.5,55.5 Z M 372.5,71.5 C 372.5,96.5 372.5,121.5 372.5,146.5C 402.833,146.5 433.167,146.5 463.5,146.5C 463.5,121.5 463.5,96.5 463.5,71.5C 433.167,71.5 402.833,71.5 372.5,71.5 Z"/></g>
<g><path style="opacity:0.936" fill="#000000" d="M 44.5,64.5 C 58.1707,64.3334 71.8374,64.5001 85.5,65C 91.588,66.0901 95.4213,69.5901 97,75.5C 97.6667,137.5 97.6667,199.5 97,261.5C 95.1777,267.167 91.3444,270.667 85.5,272C 71.8333,272.667 58.1667,272.667 44.5,272C 38.6556,270.667 34.8223,267.167 33,261.5C 32.3333,199.5 32.3333,137.5 33,75.5C 34.7544,69.5773 38.5877,65.9106 44.5,64.5 Z M 48.5,80.5 C 48.5,139.167 48.5,197.833 48.5,256.5C 59.5,256.5 70.5,256.5 81.5,256.5C 81.5,197.833 81.5,139.167 81.5,80.5C 70.5,80.5 59.5,80.5 48.5,80.5 Z"/></g>
<g><path style="opacity:0.922" fill="#000000" d="M 251.5,69.5 C 254.187,69.3359 256.854,69.5026 259.5,70C 267.749,74.7074 275.916,79.5407 284,84.5C 287.129,91.5753 284.963,95.9086 277.5,97.5C 272.798,96.3157 268.464,94.3157 264.5,91.5C 263.668,100.816 263.168,110.149 263,119.5C 259.929,124.299 255.762,125.465 250.5,123C 249.299,122.097 248.465,120.931 248,119.5C 247.832,110.149 247.332,100.816 246.5,91.5C 242.536,94.3157 238.202,96.3157 233.5,97.5C 228.5,97.1667 225.833,94.5 225.5,89.5C 225.556,86.8887 226.556,84.722 228.5,83C 236.336,78.6366 244.003,74.1366 251.5,69.5 Z"/></g>
<g><path style="opacity:0.913" fill="#000000" d="M 392.5,87.5 C 402.247,87.0796 411.914,87.5796 421.5,89C 424.394,91.9087 425.227,95.4087 424,99.5C 423.5,101.333 422.333,102.5 420.5,103C 410.5,103.667 400.5,103.667 390.5,103C 387.419,101.688 385.752,99.3546 385.5,96C 386.244,91.7646 388.577,88.9312 392.5,87.5 Z"/></g>
<g><path style="opacity:0.875" fill="#000000" d="M 59.5,101.5 C 63.9671,101.133 68.3004,101.633 72.5,103C 75.9023,106.719 76.4023,110.886 74,115.5C 68.2692,117.965 62.4358,118.132 56.5,116C 53.0839,110.081 54.0839,105.247 59.5,101.5 Z"/></g>
<g><path style="opacity:0.923" fill="#000000" d="M 392.5,113.5 C 409.503,113.333 426.503,113.5 443.5,114C 449.158,115.829 450.992,119.663 449,125.5C 448.5,127.333 447.333,128.5 445.5,129C 427.167,129.667 408.833,129.667 390.5,129C 387.419,127.688 385.752,125.355 385.5,122C 386.244,117.765 388.577,114.931 392.5,113.5 Z"/></g>
<g><path style="opacity:0.932" fill="#000000" d="M 251.5,132.5 C 254.187,132.336 256.854,132.503 259.5,133C 277.5,143.333 295.5,153.667 313.5,164C 315.81,165.637 317.31,167.804 318,170.5C 318.667,192.167 318.667,213.833 318,235.5C 317.529,237.246 316.862,238.913 316,240.5C 296.044,252.227 275.877,263.561 255.5,274.5C 235.37,263.601 215.37,252.434 195.5,241C 194.283,239.352 193.45,237.519 193,235.5C 192.032,212.77 192.365,190.103 194,167.5C 195.167,166.333 196.333,165.167 197.5,164C 215.727,153.726 233.727,143.226 251.5,132.5 Z M 254.5,149.5 C 242.23,156.974 229.897,164.474 217.5,172C 230.038,179.367 242.705,186.533 255.5,193.5C 268.295,186.533 280.962,179.367 293.5,172C 280.772,163.971 267.772,156.471 254.5,149.5 Z M 208.5,185.5 C 208.333,200.17 208.5,214.837 209,229.5C 221.418,236.959 233.918,244.293 246.5,251.5C 247.833,236.833 247.833,222.167 246.5,207.5C 233.806,200.155 221.139,192.822 208.5,185.5 Z M 301.5,185.5 C 289.395,193.059 277.062,200.392 264.5,207.5C 263.167,222.167 263.167,236.833 264.5,251.5C 277.082,244.293 289.582,236.959 302,229.5C 302.828,214.661 302.661,199.994 301.5,185.5 Z"/></g>
<g><path style="opacity:0.887" fill="#000000" d="M 60.5,140.5 C 63.5184,140.335 66.5184,140.502 69.5,141C 73.6661,141.985 75.6661,144.652 75.5,149C 74.8877,155.243 71.3877,157.743 65,156.5C 56.4134,157.581 53.0801,153.914 55,145.5C 56.1065,142.887 57.9399,141.22 60.5,140.5 Z"/></g>
<g><path style="opacity:0.899" fill="#000000" d="M 58.5,180.5 C 63.6278,180.112 68.6278,180.612 73.5,182C 77.7697,190.958 74.9364,195.791 65,196.5C 56.5179,196.69 53.1846,192.69 55,184.5C 55.6897,182.65 56.8564,181.316 58.5,180.5 Z"/></g>
<g><path style="opacity:0.887" fill="#000000" d="M 58.5,219.5 C 63.6278,219.112 68.6278,219.612 73.5,221C 77.7376,230.028 74.9043,234.861 65,235.5C 55.4666,235.108 52.4666,230.441 56,221.5C 56.9947,220.934 57.828,220.267 58.5,219.5 Z"/></g>
<g><path style="opacity:0.923" fill="#000000" d="M 143.5,232.5 C 146.972,232.126 149.972,233.126 152.5,235.5C 154.007,240.689 155.007,246.022 155.5,251.5C 162.671,247.08 170.004,242.914 177.5,239C 187.029,238.207 190.196,242.374 187,251.5C 178.916,256.459 170.749,261.293 162.5,266C 166.753,268.71 170.92,271.543 175,274.5C 177.509,283.661 174.009,287.495 164.5,286C 156.251,281.293 148.084,276.459 140,271.5C 138.378,260.264 138.045,248.931 139,237.5C 140.025,235.313 141.525,233.646 143.5,232.5 Z"/></g>
<g><path style="opacity:0.922" fill="#000000" d="M 362.5,232.5 C 366.794,232.198 369.961,233.864 372,237.5C 372.667,248.167 372.667,258.833 372,269.5C 371.535,270.931 370.701,272.097 369.5,273C 361.833,277.333 354.167,281.667 346.5,286C 338.381,287.875 334.548,284.708 335,276.5C 335.785,274.714 336.951,273.214 338.5,272C 341.833,270 345.167,268 348.5,266C 340.833,261.667 333.167,257.333 325.5,253C 321.191,247.58 321.858,242.914 327.5,239C 329.5,238.333 331.5,238.333 333.5,239C 340.996,242.914 348.329,247.08 355.5,251.5C 356.328,247.204 356.828,242.871 357,238.5C 358.021,235.65 359.854,233.65 362.5,232.5 Z"/></g>
</svg>
