<?xml version="1.0" encoding="UTF-8"?>
<!DOCTYPE svg PUBLIC "-//W3C//DTD SVG 1.1//EN" "http://www.w3.org/Graphics/SVG/1.1/DTD/svg11.dtd">
<svg xmlns="http://www.w3.org/2000/svg" version="1.1" width="512px" height="512px" style="shape-rendering:geometricPrecision; text-rendering:geometricPrecision; image-rendering:optimizeQuality; fill-rule:evenodd; clip-rule:evenodd" xmlns:xlink="http://www.w3.org/1999/xlink">
<g><path style="opacity:0.968" fill="#000000" d="M 330.5,15.5 C 352.842,12.4106 367.675,21.4106 375,42.5C 375.5,54.8288 375.667,67.1622 375.5,79.5C 399.951,79.8882 418.618,90.3882 431.5,111C 450.396,108.868 464.896,115.701 475,131.5C 476.927,134.948 478.261,138.615 479,142.5C 479.667,178.833 479.667,215.167 479,251.5C 478.5,253.333 477.333,254.5 475.5,255C 472.833,255.667 470.167,255.667 467.5,255C 465.667,254.5 464.5,253.333 464,251.5C 463.96,216.133 463.293,180.8 462,145.5C 458.148,134.65 450.481,128.65 439,127.5C 444.432,161.802 431.932,186.969 401.5,203C 376.944,212.098 354.278,208.765 333.5,193C 330.462,190.297 327.795,187.297 325.5,184C 316.167,183.333 306.833,183.333 297.5,184C 281.626,203.075 261.292,210.741 236.5,207C 207.667,200.833 190.167,183.333 184,154.5C 183.319,145.477 183.486,136.477 184.5,127.5C 174.828,127.334 165.161,127.5 155.5,128C 171.46,155.418 187.293,182.918 203,210.5C 204.075,214.77 204.575,219.103 204.5,223.5C 246.835,223.333 289.168,223.5 331.5,224C 333.333,224.5 334.5,225.667 335,227.5C 335.5,242.163 335.667,256.83 335.5,271.5C 354.167,271.5 372.833,271.5 391.5,271.5C 391.333,254.163 391.5,236.83 392,219.5C 392.368,218.09 393.201,217.09 394.5,216.5C 410.789,215.349 427.122,215.182 443.5,216C 445.333,216.5 446.5,217.667 447,219.5C 447.667,222.167 447.667,224.833 447,227.5C 444.89,231.386 443.057,235.386 441.5,239.5C 443.983,244.962 446.316,250.462 448.5,256C 447.801,259.08 446.134,261.414 443.5,263C 431.505,263.5 419.505,263.667 407.5,263.5C 407.5,266.167 407.5,268.833 407.5,271.5C 414.175,271.334 420.842,271.5 427.5,272C 429.333,272.5 430.5,273.667 431,275.5C 431.667,294.167 431.667,312.833 431,331.5C 430.5,333.333 429.333,334.5 427.5,335C 376.833,335.667 326.167,335.667 275.5,335C 273.667,334.5 272.5,333.333 272,331.5C 271.06,322.73 271.393,314.064 273,305.5C 277.052,303.058 281.219,302.891 285.5,305C 286.126,305.75 286.626,306.584 287,307.5C 287.499,311.486 287.666,315.486 287.5,319.5C 298.167,319.5 308.833,319.5 319.5,319.5C 319.5,308.833 319.5,298.167 319.5,287.5C 292.833,287.5 266.167,287.5 239.5,287.5C 239.667,318.168 239.5,348.835 239,379.5C 238.5,381.333 237.333,382.5 235.5,383C 226.73,383.94 218.064,383.607 209.5,382C 207.058,377.948 206.891,373.781 209,369.5C 209.75,368.874 210.584,368.374 211.5,368C 215.486,367.501 219.486,367.334 223.5,367.5C 223.5,356.833 223.5,346.167 223.5,335.5C 212.833,335.5 202.167,335.5 191.5,335.5C 191.667,350.17 191.5,364.837 191,379.5C 190.5,381.333 189.333,382.5 187.5,383C 152.833,383.667 118.167,383.667 83.5,383C 81.6667,382.5 80.5,381.333 80,379.5C 79.3333,360.833 79.3333,342.167 80,323.5C 80.6449,322.354 81.4783,321.354 82.5,320.5C 80.1054,315.453 79.1054,310.12 79.5,304.5C 79.6726,287.834 87.6726,277.001 103.5,272C 132.492,269.993 145.659,283.493 143,312.5C 142.338,314.813 141.838,317.146 141.5,319.5C 152.833,319.5 164.167,319.5 175.5,319.5C 175.667,307.162 175.5,294.829 175,282.5C 161.178,271.923 147.178,261.589 133,251.5C 119.253,227.003 105.253,202.67 91,178.5C 88.3726,171.419 90.7059,167.085 98,165.5C 99.9674,165.542 101.801,166.042 103.5,167C 116.712,188.587 129.545,210.42 142,232.5C 142.414,232.957 142.914,233.291 143.5,233.5C 147.5,231.167 151.5,228.833 155.5,226.5C 129.575,180.306 102.909,134.639 75.5,89.5C 71.3318,91.7497 67.3318,94.2497 63.5,97C 73.5652,112.801 82.5652,129.135 90.5,146C 88.6644,154.498 83.831,156.665 76,152.5C 73.5841,147.999 70.9175,143.666 68,139.5C 65.4771,143.069 64.1438,147.069 64,151.5C 63.3333,223.5 63.3333,295.5 64,367.5C 65.8333,386.667 76.3333,397.167 95.5,399C 190.833,399.667 286.167,399.667 381.5,399C 378.263,385.646 375.596,372.146 373.5,358.5C 372.833,351.833 375.833,348.833 382.5,349.5C 403.021,352.838 423.355,357.004 443.5,362C 446.265,364.995 447.098,368.495 446,372.5C 444.023,375.312 441.856,377.978 439.5,380.5C 443.818,385.319 448.318,389.985 453,394.5C 459.231,389.705 462.565,383.371 463,375.5C 463.333,342.167 463.667,308.833 464,275.5C 464.5,273.667 465.667,272.5 467.5,272C 470.964,271.183 474.298,271.517 477.5,273C 478.126,273.75 478.626,274.584 479,275.5C 479.667,311.833 479.667,348.167 479,384.5C 476.683,393.3 472.183,400.8 465.5,407C 470.166,411.006 470.666,415.506 467,420.5C 459.5,428 452,435.5 444.5,443C 441.001,445.704 437.334,446.037 433.5,444C 423.986,434.319 414.319,424.819 404.5,415.5C 401.468,419.261 397.635,421.594 393,422.5C 388.681,422.592 385.848,420.592 384.5,416.5C 370.167,415.167 355.833,415.167 341.5,416.5C 346.5,426.5 351.5,436.5 356.5,446.5C 367.819,447.332 379.152,447.832 390.5,448C 398.667,450.833 404.167,456.333 407,464.5C 407.667,473.5 407.667,482.5 407,491.5C 406.626,492.416 406.126,493.25 405.5,494C 346.249,495.659 286.916,495.992 227.5,495C 225.667,494.5 224.5,493.333 224,491.5C 223.333,488.833 223.333,486.167 224,483.5C 224.5,481.667 225.667,480.5 227.5,480C 282.166,479.5 336.832,479.333 391.5,479.5C 391.887,474.92 391.053,470.586 389,466.5C 387.352,465.283 385.519,464.45 383.5,464C 303.5,463.333 223.5,463.333 143.5,464C 139,464.5 136.5,467 136,471.5C 135.503,474.146 135.336,476.813 135.5,479.5C 158.169,479.333 180.836,479.5 203.5,480C 205.333,480.5 206.5,481.667 207,483.5C 207.667,486.167 207.667,488.833 207,491.5C 206.5,493.333 205.333,494.5 203.5,495C 176.08,495.982 148.747,495.649 121.5,494C 120.874,493.25 120.374,492.416 120,491.5C 119.333,482.5 119.333,473.5 120,464.5C 122.833,456.333 128.333,450.833 136.5,448C 147.848,447.832 159.181,447.332 170.5,446.5C 175.5,436.5 180.5,426.5 185.5,416.5C 152.172,415.667 118.838,415.167 85.5,415C 65.6667,409.833 53.1667,397.333 48,377.5C 47.3333,299.167 47.3333,220.833 48,142.5C 49.6662,134.833 53.1662,128.166 58.5,122.5C 49.7321,107.296 41.2321,91.9625 33,76.5C 27.2823,52.1027 35.7823,34.936 58.5,25C 79.2514,19.5781 95.418,25.7448 107,43.5C 119.833,65.8333 132.667,88.1667 145.5,110.5C 160.822,111.666 176.156,111.833 191.5,111C 210.459,83.3377 236.459,73.3377 269.5,81C 271.429,84.2559 271.929,87.7559 271,91.5C 270.5,93.3333 269.333,94.5 267.5,95C 254.203,94.5832 241.203,96.2499 228.5,100C 203.228,114.152 195.061,134.985 204,162.5C 214.995,183.915 232.495,193.082 256.5,190C 263.929,188.617 270.596,185.617 276.5,181C 280.887,176.613 285.221,172.279 289.5,168C 304.167,167.333 318.833,167.333 333.5,168C 338.113,172.613 342.779,177.279 347.5,182C 372.519,196.289 394.686,192.789 414,171.5C 429.099,144.74 424.599,121.907 400.5,103C 393.034,98.8447 385.034,96.5114 376.5,96C 347.414,95.9841 318.414,95.3174 289.5,94C 288.874,93.2496 288.374,92.4162 288,91.5C 287.333,78.1667 287.333,64.8333 288,51.5C 288.5,49.6667 289.667,48.5 291.5,48C 295.486,47.5012 299.486,47.3345 303.5,47.5C 306.017,31.3199 315.017,20.6532 330.5,15.5 Z M 333.5,32.5 C 348.351,30.4942 356.851,36.8276 359,51.5C 359.5,60.8274 359.666,70.1607 359.5,79.5C 351.5,79.5 343.5,79.5 335.5,79.5C 335.666,70.1607 335.5,60.8274 335,51.5C 334.5,49.6667 333.333,48.5 331.5,48C 327.789,47.8253 324.122,47.3253 320.5,46.5C 322.822,39.8486 327.155,35.1819 333.5,32.5 Z M 70.5,39.5 C 82.3536,40.8469 90.6869,47.0136 95.5,58C 81.9181,65.7071 68.4181,73.5404 55,81.5C 44.8312,67.9958 45.9979,55.4958 58.5,44C 62.4324,41.9716 66.4324,40.4716 70.5,39.5 Z M 303.5,63.5 C 308.833,63.5 314.167,63.5 319.5,63.5C 319.5,68.8333 319.5,74.1667 319.5,79.5C 314.167,79.5 308.833,79.5 303.5,79.5C 303.5,74.1667 303.5,68.8333 303.5,63.5 Z M 102.5,73.5 C 103.496,73.4142 104.329,73.7476 105,74.5C 130.788,119.912 156.955,165.079 183.5,210C 179.668,212.75 175.668,215.25 171.5,217.5C 144.218,172.446 117.551,126.946 91.5,81C 95.2326,78.4772 98.8992,75.9772 102.5,73.5 Z M 187.5,227.5 C 189.069,232.998 189.402,238.665 188.5,244.5C 182.227,248.554 175.727,252.22 169,255.5C 164.845,253.087 160.845,250.421 157,247.5C 156.312,246.668 156.479,246.002 157.5,245.5C 167.895,239.977 177.895,233.977 187.5,227.5 Z M 407.5,231.5 C 413.537,231.171 419.537,231.504 425.5,232.5C 422.833,237.167 422.833,241.833 425.5,246.5C 419.537,247.496 413.537,247.829 407.5,247.5C 407.5,242.167 407.5,236.833 407.5,231.5 Z M 206.5,239.5 C 212.167,239.5 217.833,239.5 223.5,239.5C 223.5,250.167 223.5,260.833 223.5,271.5C 218.833,271.5 214.167,271.5 209.5,271.5C 208.764,260.806 207.764,250.14 206.5,239.5 Z M 239.5,239.5 C 250.167,239.5 260.833,239.5 271.5,239.5C 271.5,250.167 271.5,260.833 271.5,271.5C 260.833,271.5 250.167,271.5 239.5,271.5C 239.5,260.833 239.5,250.167 239.5,239.5 Z M 287.5,239.5 C 298.167,239.5 308.833,239.5 319.5,239.5C 319.5,250.167 319.5,260.833 319.5,271.5C 308.833,271.5 298.167,271.5 287.5,271.5C 287.5,260.833 287.5,250.167 287.5,239.5 Z M 189.5,263.5 C 190.496,263.414 191.329,263.748 192,264.5C 192.667,267.5 192.667,270.5 192,273.5C 189.407,271.451 186.907,269.285 184.5,267C 186.346,265.97 188.013,264.804 189.5,263.5 Z M 211.5,287.5 C 215.5,287.5 219.5,287.5 223.5,287.5C 223.5,298.167 223.5,308.833 223.5,319.5C 212.833,319.5 202.167,319.5 191.5,319.5C 191.334,311.16 191.5,302.827 192,294.5C 195.975,298.743 200.809,300.576 206.5,300C 208.286,299.215 209.786,298.049 211,296.5C 211.498,293.518 211.665,290.518 211.5,287.5 Z M 335.5,287.5 C 346.167,287.5 356.833,287.5 367.5,287.5C 367.5,298.167 367.5,308.833 367.5,319.5C 356.833,319.5 346.167,319.5 335.5,319.5C 335.5,308.833 335.5,298.167 335.5,287.5 Z M 383.5,287.5 C 386.167,287.5 388.833,287.5 391.5,287.5C 391.334,291.514 391.501,295.514 392,299.5C 393.529,302.516 396.029,303.849 399.5,303.5C 401.926,303.596 404.093,302.93 406,301.5C 407.379,296.964 407.879,292.297 407.5,287.5C 410.167,287.5 412.833,287.5 415.5,287.5C 415.5,298.167 415.5,308.833 415.5,319.5C 404.833,319.5 394.167,319.5 383.5,319.5C 383.5,308.833 383.5,298.167 383.5,287.5 Z M 106.5,288.5 C 121.477,287.643 127.977,294.643 126,309.5C 124.054,316.058 121.054,322.058 117,327.5C 115.289,330.58 112.789,331.746 109.5,331C 98.4337,320.822 94.9337,308.655 99,294.5C 101.114,291.879 103.614,289.879 106.5,288.5 Z M 143.5,335.5 C 154.167,335.5 164.833,335.5 175.5,335.5C 175.5,346.167 175.5,356.833 175.5,367.5C 164.833,367.5 154.167,367.5 143.5,367.5C 143.5,356.833 143.5,346.167 143.5,335.5 Z M 96.5,342.5 C 99.3347,345.165 102.335,347.665 105.5,350C 109.5,352 113.5,352 117.5,350C 120.63,347.872 123.463,345.372 126,342.5C 126.183,350.745 126.683,358.912 127.5,367C 116.818,367.832 106.151,367.666 95.5,366.5C 96.4685,358.556 96.8019,350.556 96.5,342.5 Z M 392.5,368.5 C 401.833,370.266 411.166,372.1 420.5,374C 418.066,377.716 417.899,381.549 420,385.5C 429.5,395 439,404.5 448.5,414C 445,417.5 441.5,421 438,424.5C 428.5,415 419,405.5 409.5,396C 405.549,393.899 401.716,394.066 398,396.5C 396.1,387.166 394.266,377.833 392.5,368.5 Z M 204.5,415.5 C 243.839,415.167 283.172,415.5 322.5,416.5C 327.5,426.5 332.5,436.5 337.5,446.5C 288.167,447.833 238.833,447.833 189.5,446.5C 194.784,436.267 199.784,425.934 204.5,415.5 Z"/></g>
<g><path style="opacity:0.892" fill="#000000" d="M 379.5,111.5 C 390.86,110.71 394.193,115.543 389.5,126C 378.964,129.997 374.464,126.497 376,115.5C 376.69,113.65 377.856,112.316 379.5,111.5 Z"/></g>
<g><path style="opacity:0.96" fill="#000000" d="M 243.5,119.5 C 247.257,119.071 250.757,119.737 254,121.5C 255.379,126.036 255.879,130.703 255.5,135.5C 259.514,135.334 263.514,135.501 267.5,136C 270.516,137.529 271.849,140.029 271.5,143.5C 271.596,145.926 270.93,148.093 269.5,150C 264.964,151.379 260.297,151.879 255.5,151.5C 255.666,155.514 255.499,159.514 255,163.5C 253.471,166.516 250.971,167.849 247.5,167.5C 245.074,167.596 242.907,166.93 241,165.5C 239.621,160.964 239.121,156.297 239.5,151.5C 235.486,151.666 231.486,151.499 227.5,151C 224.484,149.471 223.151,146.971 223.5,143.5C 223.404,141.074 224.07,138.907 225.5,137C 230.036,135.621 234.703,135.121 239.5,135.5C 239.334,131.486 239.501,127.486 240,123.5C 240.69,121.65 241.856,120.316 243.5,119.5 Z"/></g>
<g><path style="opacity:0.892" fill="#000000" d="M 291.5,135.5 C 302.86,134.71 306.193,139.543 301.5,150C 290.964,153.997 286.464,150.497 288,139.5C 288.69,137.65 289.856,136.316 291.5,135.5 Z"/></g>
<g><path style="opacity:0.892" fill="#000000" d="M 323.5,135.5 C 334.86,134.71 338.193,139.543 333.5,150C 322.964,153.997 318.464,150.497 320,139.5C 320.69,137.65 321.856,136.316 323.5,135.5 Z"/></g>
<g><path style="opacity:0.892" fill="#000000" d="M 355.5,135.5 C 366.86,134.71 370.193,139.543 365.5,150C 354.964,153.997 350.464,150.497 352,139.5C 352.69,137.65 353.856,136.316 355.5,135.5 Z"/></g>
<g><path style="opacity:0.892" fill="#000000" d="M 395.5,135.5 C 406.86,134.71 410.193,139.543 405.5,150C 394.964,153.997 390.464,150.497 392,139.5C 392.69,137.65 393.856,136.316 395.5,135.5 Z"/></g>
<g><path style="opacity:0.892" fill="#000000" d="M 371.5,159.5 C 382.86,158.71 386.193,163.543 381.5,174C 370.964,177.997 366.464,174.497 368,163.5C 368.69,161.65 369.856,160.316 371.5,159.5 Z"/></g>
</svg>
