<?xml version="1.0" encoding="UTF-8"?>
<!DOCTYPE svg PUBLIC "-//W3C//DTD SVG 1.1//EN" "http://www.w3.org/Graphics/SVG/1.1/DTD/svg11.dtd">
<svg xmlns="http://www.w3.org/2000/svg" version="1.1" width="512px" height="512px" style="shape-rendering:geometricPrecision; text-rendering:geometricPrecision; image-rendering:optimizeQuality; fill-rule:evenodd; clip-rule:evenodd" xmlns:xlink="http://www.w3.org/1999/xlink">
<g><path style="opacity:0.949" fill="#000000" d="M 25.5,-0.5 C 178.833,-0.5 332.167,-0.5 485.5,-0.5C 498.5,3.83333 507.167,12.5 511.5,25.5C 511.5,144.833 511.5,264.167 511.5,383.5C 507.151,397.345 497.817,405.845 483.5,409C 441.835,409.5 400.168,409.667 358.5,409.5C 358.188,416.422 358.521,423.256 359.5,430C 377.004,440.253 394.671,450.253 412.5,460C 414.57,460.948 416.07,462.448 417,464.5C 418.595,475.093 418.928,485.76 418,496.5C 416.57,503.42 412.737,508.42 406.5,511.5C 305.833,511.5 205.167,511.5 104.5,511.5C 98.2634,508.42 94.4301,503.42 93,496.5C 92.0716,485.76 92.4049,475.093 94,464.5C 94.9299,462.448 96.4299,460.948 98.5,460C 116.329,450.253 133.996,440.253 151.5,430C 152.479,423.256 152.812,416.422 152.5,409.5C 110.832,409.667 69.1653,409.5 27.5,409C 13.1827,405.845 3.84933,397.345 -0.5,383.5C -0.5,264.167 -0.5,144.833 -0.5,25.5C 3.83333,12.5 12.5,3.83333 25.5,-0.5 Z M 28.5,17.5 C 179.834,17.3333 331.167,17.5 482.5,18C 487.333,20.1667 490.833,23.6667 493,28.5C 493.5,126.833 493.667,225.166 493.5,323.5C 334.833,323.5 176.167,323.5 17.5,323.5C 17.3333,225.166 17.5,126.833 18,28.5C 20.3566,23.6455 23.8566,19.9788 28.5,17.5 Z M 173.5,51.5 C 187.821,49.9968 194.988,56.3301 195,70.5C 190.643,82.5964 182.476,86.4297 170.5,82C 162.185,75.7995 160.352,67.9662 165,58.5C 167.441,55.5464 170.275,53.2131 173.5,51.5 Z M 116.5,136.5 C 124.642,136.481 127.808,140.481 126,148.5C 121.333,153.833 116.667,153.833 112,148.5C 110.309,143.131 111.809,139.131 116.5,136.5 Z M 236.5,153.5 C 242.984,153.815 246.151,157.148 246,163.5C 244.268,168.617 240.768,170.45 235.5,169C 231.139,166.774 229.639,163.274 231,158.5C 232.406,156.256 234.239,154.59 236.5,153.5 Z M 341.5,171.5 C 360.504,178.169 379.17,185.669 397.5,194C 390.167,197.333 382.833,200.667 375.5,204C 371.444,211.278 367.778,218.778 364.5,226.5C 356.25,208.42 348.584,190.087 341.5,171.5 Z M 245.5,221.5 C 252.994,222.145 255.827,226.145 254,233.5C 247.249,239.628 242.083,238.462 238.5,230C 239.329,228.184 240.163,226.351 241,224.5C 242.652,223.601 244.152,222.601 245.5,221.5 Z M 169.5,238.5 C 177.14,239.946 179.64,244.279 177,251.5C 171.967,255.779 167.3,255.446 163,250.5C 161.541,244.474 163.708,240.474 169.5,238.5 Z M 17.5,341.5 C 176.167,341.5 334.833,341.5 493.5,341.5C 493.667,354.504 493.5,367.504 493,380.5C 490.768,385.731 486.935,389.231 481.5,391C 330.833,391.667 180.167,391.667 29.5,391C 24.0896,389.257 20.2563,385.757 18,380.5C 17.5001,367.504 17.3334,354.504 17.5,341.5 Z M 170.5,409.5 C 227.167,409.5 283.833,409.5 340.5,409.5C 340.5,414.833 340.5,420.167 340.5,425.5C 283.833,425.5 227.167,425.5 170.5,425.5C 170.5,420.167 170.5,414.833 170.5,409.5 Z M 163.5,443.5 C 224.834,443.333 286.168,443.5 347.5,444C 356.167,449 364.833,454 373.5,459C 294.833,459.667 216.167,459.667 137.5,459C 146.395,454.059 155.062,448.892 163.5,443.5 Z M 110.5,477.5 C 207.167,477.5 303.833,477.5 400.5,477.5C 400.5,482.833 400.5,488.167 400.5,493.5C 303.833,493.5 207.167,493.5 110.5,493.5C 110.5,488.167 110.5,482.833 110.5,477.5 Z"/></g>
<g><path style="opacity:0.939" fill="#000000" d="M 170.5,33.5 C 198.627,31.4651 212.794,44.4651 213,72.5C 210.4,87.1005 202.067,96.7672 188,101.5C 187.169,108.524 187.336,115.524 188.5,122.5C 199.663,128.581 210.663,134.914 221.5,141.5C 229.439,136.112 238.105,134.112 247.5,135.5C 253.997,126.841 260.997,118.675 268.5,111C 279.24,109.654 283.073,114.154 280,124.5C 274,131.833 268,139.167 262,146.5C 263.045,151.545 263.879,156.711 264.5,162C 263.905,173.198 258.572,181.198 248.5,186C 225.368,190.519 213.202,181.019 212,157.5C 204.249,152.707 196.416,148.041 188.5,143.5C 187.167,159.167 187.167,174.833 188.5,190.5C 201.938,197.303 215.438,203.969 229,210.5C 240.7,201.523 252.533,201.357 264.5,210C 276.863,224.285 276.196,237.952 262.5,251C 260.532,252.544 258.365,253.711 256,254.5C 255.667,270.5 255.333,286.5 255,302.5C 249.667,309.167 244.333,309.167 239,302.5C 237.712,286.567 237.045,270.567 237,254.5C 225.373,248.934 219.539,239.601 219.5,226.5C 208.255,220.961 197.089,215.294 186,209.5C 184.565,214.437 183.898,219.437 184,224.5C 197.898,235.998 199.898,249.331 190,264.5C 184.584,269.79 178.084,272.79 170.5,273.5C 166.546,272.387 162.546,271.887 158.5,272C 147.5,283 136.5,294 125.5,305C 117.402,309.36 112.069,307.194 109.5,298.5C 109.899,296.803 110.399,295.137 111,293.5C 123.014,281.653 134.848,269.653 146.5,257.5C 140.751,238.994 147.085,226.994 165.5,221.5C 166.448,213.81 167.615,206.144 169,198.5C 169.667,178.833 169.667,159.167 169,139.5C 160.93,142.134 152.763,144.467 144.5,146.5C 143.864,157.639 138.364,165.305 128,169.5C 127.667,179.833 127.333,190.167 127,200.5C 121.667,205.833 116.333,205.833 111,200.5C 110.667,199.167 110.333,197.833 110,196.5C 109.832,187.149 109.332,177.816 108.5,168.5C 93.4715,159.915 89.3049,147.582 96,131.5C 104.722,119.108 116.222,115.608 130.5,121C 134.328,123.339 137.995,125.839 141.5,128.5C 150.529,126.101 159.529,123.601 168.5,121C 169.479,114.256 169.812,107.422 169.5,100.5C 157.786,97.9577 149.952,90.9577 146,79.5C 140.825,56.8416 148.992,41.5083 170.5,33.5 Z M 173.5,51.5 C 170.275,53.2131 167.441,55.5464 165,58.5C 160.352,67.9662 162.185,75.7995 170.5,82C 182.476,86.4297 190.643,82.5964 195,70.5C 194.988,56.3301 187.821,49.9968 173.5,51.5 Z M 116.5,136.5 C 111.809,139.131 110.309,143.131 112,148.5C 116.667,153.833 121.333,153.833 126,148.5C 127.808,140.481 124.642,136.481 116.5,136.5 Z M 236.5,153.5 C 234.239,154.59 232.406,156.256 231,158.5C 229.639,163.274 231.139,166.774 235.5,169C 240.768,170.45 244.268,168.617 246,163.5C 246.151,157.148 242.984,153.815 236.5,153.5 Z M 245.5,221.5 C 244.152,222.601 242.652,223.601 241,224.5C 240.163,226.351 239.329,228.184 238.5,230C 242.083,238.462 247.249,239.628 254,233.5C 255.827,226.145 252.994,222.145 245.5,221.5 Z M 169.5,238.5 C 163.708,240.474 161.541,244.474 163,250.5C 167.3,255.446 171.967,255.779 177,251.5C 179.64,244.279 177.14,239.946 169.5,238.5 Z"/></g>
<g><path style="opacity:0.932" fill="#000000" d="M 338.5,151.5 C 362.867,159.569 386.867,168.736 410.5,179C 421.15,188.625 421.15,198.292 410.5,208C 403.5,211.167 396.5,214.333 389.5,217.5C 385.743,224.681 382.243,232.014 379,239.5C 369.706,249.785 360.039,250.118 350,240.5C 339.84,217.015 330.673,193.181 322.5,169C 323.578,159.095 328.911,153.262 338.5,151.5 Z M 341.5,171.5 C 348.584,190.087 356.25,208.42 364.5,226.5C 367.778,218.778 371.444,211.278 375.5,204C 382.833,200.667 390.167,197.333 397.5,194C 379.17,185.669 360.504,178.169 341.5,171.5 Z"/></g>
<g><path style="opacity:0.927" fill="#000000" d="M 234.5,357.5 C 248.504,357.333 262.504,357.5 276.5,358C 281.068,360.587 282.568,364.421 281,369.5C 279.833,372 278,373.833 275.5,375C 262.167,375.667 248.833,375.667 235.5,375C 230.268,372.367 228.435,368.201 230,362.5C 231.366,360.638 232.866,358.972 234.5,357.5 Z"/></g>
</svg>
