<?xml version="1.0" encoding="UTF-8"?>
<!DOCTYPE svg PUBLIC "-//W3C//DTD SVG 1.1//EN" "http://www.w3.org/Graphics/SVG/1.1/DTD/svg11.dtd">
<svg xmlns="http://www.w3.org/2000/svg" version="1.1" width="512px" height="512px" style="shape-rendering:geometricPrecision; text-rendering:geometricPrecision; image-rendering:optimizeQuality; fill-rule:evenodd; clip-rule:evenodd" xmlns:xlink="http://www.w3.org/1999/xlink">
<g><path style="opacity:0.984" fill="#000000" d="M 511.5,32.5 C 511.5,143.833 511.5,255.167 511.5,366.5C 508.351,374.481 502.684,379.981 494.5,383C 436.168,383.5 377.834,383.667 319.5,383.5C 319.333,396.837 319.5,410.171 320,423.5C 321.5,437.667 329.333,445.5 343.5,447C 356.829,447.5 370.163,447.667 383.5,447.5C 383.5,463.5 383.5,479.5 383.5,495.5C 298.167,495.5 212.833,495.5 127.5,495.5C 127.5,479.5 127.5,463.5 127.5,447.5C 140.837,447.667 154.171,447.5 167.5,447C 178.795,446.037 186.295,440.204 190,429.5C 191.399,414.21 191.899,398.877 191.5,383.5C 133.166,383.667 74.8324,383.5 16.5,383C 8.31563,379.981 2.64896,374.481 -0.5,366.5C -0.5,255.167 -0.5,143.833 -0.5,32.5C 2.64896,24.5191 8.31563,19.0191 16.5,16C 175.833,15.3333 335.167,15.3333 494.5,16C 502.684,19.0191 508.351,24.5191 511.5,32.5 Z M 23.5,31.5 C 178.167,31.3333 332.834,31.5 487.5,32C 492,32.5 494.5,35 495,39.5C 495.667,100.5 495.667,161.5 495,222.5C 482.231,205.755 465.398,195.589 444.5,192C 377.167,191.333 309.833,191.333 242.5,192C 209.953,198.885 188.453,218.052 178,249.5C 175.972,256.694 175.139,264.027 175.5,271.5C 122.167,271.5 68.8333,271.5 15.5,271.5C 15.3333,194.166 15.5,116.833 16,39.5C 16.6804,34.9895 19.1804,32.3228 23.5,31.5 Z M 255.5,207.5 C 314.501,207.333 373.501,207.5 432.5,208C 463.301,210.314 483.468,226.148 493,255.5C 499.115,288.43 487.615,312.93 458.5,329C 429.745,340.355 404.578,334.855 383,312.5C 379.125,307.254 375.625,301.754 372.5,296C 353.167,295.333 333.833,295.333 314.5,296C 296.724,328.716 269.724,340.382 233.5,331C 203.106,317.259 189.606,293.759 193,260.5C 201.21,227.78 222.043,210.113 255.5,207.5 Z M 15.5,287.5 C 69.1708,287.167 122.837,287.5 176.5,288.5C 190.268,333.903 220.935,354.737 268.5,351C 293.486,346.671 312.486,333.671 325.5,312C 337.5,311.333 349.5,311.333 361.5,312C 386.578,348.249 420.245,359.582 462.5,346C 475.679,340.493 486.513,331.993 495,320.5C 495.667,333.5 495.667,346.5 495,359.5C 494.5,364 492,366.5 487.5,367C 332.833,367.667 178.167,367.667 23.5,367C 19,366.5 16.5,364 16,359.5C 15.5,335.502 15.3334,311.502 15.5,287.5 Z M 207.5,383.5 C 215.5,383.5 223.5,383.5 231.5,383.5C 231.333,394.172 231.5,404.839 232,415.5C 239.801,431.437 251.968,435.937 268.5,429C 273.306,425.574 276.806,421.074 279,415.5C 279.5,404.839 279.667,394.172 279.5,383.5C 287.5,383.5 295.5,383.5 303.5,383.5C 303.333,399.837 303.5,416.17 304,432.5C 305.206,437.792 307.372,442.625 310.5,447C 273.833,447.667 237.167,447.667 200.5,447C 203.628,442.625 205.794,437.792 207,432.5C 207.5,416.17 207.667,399.837 207.5,383.5 Z M 247.5,383.5 C 252.833,383.5 258.167,383.5 263.5,383.5C 263.886,392.9 263.386,402.234 262,411.5C 257.667,416.833 253.333,416.833 249,411.5C 247.614,402.234 247.114,392.9 247.5,383.5 Z M 143.5,463.5 C 218.167,463.5 292.833,463.5 367.5,463.5C 367.5,468.833 367.5,474.167 367.5,479.5C 292.833,479.5 218.167,479.5 143.5,479.5C 143.5,474.167 143.5,468.833 143.5,463.5 Z"/></g>
<g><path style="opacity:0.921" fill="#000000" d="M 72.5,50.5 C 77.4602,53.3234 82.1269,56.6567 86.5,60.5C 77.1667,72.1667 67.8333,83.8333 58.5,95.5C 67.8333,107.167 77.1667,118.833 86.5,130.5C 82.347,134.075 78.0137,137.409 73.5,140.5C 60.8188,125.816 48.4855,110.816 36.5,95.5C 48.5236,80.4811 60.5236,65.4811 72.5,50.5 Z"/></g>
<g><path style="opacity:0.921" fill="#000000" d="M 196.5,50.5 C 198.716,51.2026 200.549,52.5359 202,54.5C 212.833,68.1667 223.667,81.8333 234.5,95.5C 222.515,110.816 210.181,125.816 197.5,140.5C 192.986,137.409 188.653,134.075 184.5,130.5C 193.833,118.833 203.167,107.167 212.5,95.5C 203.167,83.8333 193.833,72.1667 184.5,60.5C 188.571,57.1482 192.571,53.8149 196.5,50.5 Z"/></g>
<g><path style="opacity:0.911" fill="#000000" d="M 156.5,57.5 C 160.773,60.5962 164.94,63.9296 169,67.5C 169.667,68.5 169.667,69.5 169,70.5C 151,91.1667 133,111.833 115,132.5C 114.282,133.451 113.449,133.617 112.5,133C 109.283,129.483 105.783,126.316 102,123.5C 101.333,122.5 101.333,121.5 102,120.5C 120.376,99.628 138.543,78.628 156.5,57.5 Z"/></g>
<g><path style="opacity:1" fill="#000000" d="M 239.5,63.5 C 260.833,63.5 282.167,63.5 303.5,63.5C 303.5,68.8333 303.5,74.1667 303.5,79.5C 282.167,79.5 260.833,79.5 239.5,79.5C 239.5,74.1667 239.5,68.8333 239.5,63.5 Z"/></g>
<g><path style="opacity:1" fill="#000000" d="M 335.5,63.5 C 378.167,63.5 420.833,63.5 463.5,63.5C 463.5,68.8333 463.5,74.1667 463.5,79.5C 420.833,79.5 378.167,79.5 335.5,79.5C 335.5,74.1667 335.5,68.8333 335.5,63.5 Z"/></g>
<g><path style="opacity:1" fill="#000000" d="M 255.5,95.5 C 276.833,95.5 298.167,95.5 319.5,95.5C 319.5,100.833 319.5,106.167 319.5,111.5C 298.167,111.5 276.833,111.5 255.5,111.5C 255.5,106.167 255.5,100.833 255.5,95.5 Z"/></g>
<g><path style="opacity:1" fill="#000000" d="M 351.5,95.5 C 388.833,95.5 426.167,95.5 463.5,95.5C 463.5,100.833 463.5,106.167 463.5,111.5C 426.167,111.5 388.833,111.5 351.5,111.5C 351.5,106.167 351.5,100.833 351.5,95.5 Z"/></g>
<g><path style="opacity:1" fill="#000000" d="M 239.5,127.5 C 292.833,127.5 346.167,127.5 399.5,127.5C 399.5,132.833 399.5,138.167 399.5,143.5C 346.167,143.5 292.833,143.5 239.5,143.5C 239.5,138.167 239.5,132.833 239.5,127.5 Z"/></g>
<g><path style="opacity:1" fill="#000000" d="M 431.5,127.5 C 442.167,127.5 452.833,127.5 463.5,127.5C 463.5,132.833 463.5,138.167 463.5,143.5C 452.833,143.5 442.167,143.5 431.5,143.5C 431.5,138.167 431.5,132.833 431.5,127.5 Z"/></g>
<g><path style="opacity:1" fill="#000000" d="M 47.5,159.5 C 74.1667,159.5 100.833,159.5 127.5,159.5C 127.5,164.833 127.5,170.167 127.5,175.5C 100.833,175.5 74.1667,175.5 47.5,175.5C 47.5,170.167 47.5,164.833 47.5,159.5 Z"/></g>
<g><path style="opacity:1" fill="#000000" d="M 159.5,159.5 C 210.167,159.5 260.833,159.5 311.5,159.5C 311.5,164.833 311.5,170.167 311.5,175.5C 260.833,175.5 210.167,175.5 159.5,175.5C 159.5,170.167 159.5,164.833 159.5,159.5 Z"/></g>
<g><path style="opacity:1" fill="#000000" d="M 335.5,159.5 C 378.167,159.5 420.833,159.5 463.5,159.5C 463.5,164.833 463.5,170.167 463.5,175.5C 420.833,175.5 378.167,175.5 335.5,175.5C 335.5,170.167 335.5,164.833 335.5,159.5 Z"/></g>
<g><path style="opacity:1" fill="#000000" d="M 47.5,191.5 C 90.1667,191.5 132.833,191.5 175.5,191.5C 175.5,196.833 175.5,202.167 175.5,207.5C 132.833,207.5 90.1667,207.5 47.5,207.5C 47.5,202.167 47.5,196.833 47.5,191.5 Z"/></g>
<g><path style="opacity:1" fill="#000000" d="M 47.5,223.5 C 68.8333,223.5 90.1667,223.5 111.5,223.5C 111.5,228.833 111.5,234.167 111.5,239.5C 90.1667,239.5 68.8333,239.5 47.5,239.5C 47.5,234.167 47.5,228.833 47.5,223.5 Z"/></g>
<g><path style="opacity:1" fill="#000000" d="M 127.5,223.5 C 138.167,223.5 148.833,223.5 159.5,223.5C 159.5,228.833 159.5,234.167 159.5,239.5C 148.833,239.5 138.167,239.5 127.5,239.5C 127.5,234.167 127.5,228.833 127.5,223.5 Z"/></g>
<g><path style="opacity:1" fill="#000000" d="M 423.5,231.5 C 428.833,231.5 434.167,231.5 439.5,231.5C 439.5,236.833 439.5,242.167 439.5,247.5C 434.167,247.5 428.833,247.5 423.5,247.5C 423.5,242.167 423.5,236.833 423.5,231.5 Z"/></g>
<g><path style="opacity:1" fill="#000000" d="M 247.5,239.5 C 252.833,239.5 258.167,239.5 263.5,239.5C 263.5,247.5 263.5,255.5 263.5,263.5C 271.5,263.5 279.5,263.5 287.5,263.5C 287.5,268.833 287.5,274.167 287.5,279.5C 279.5,279.5 271.5,279.5 263.5,279.5C 263.5,287.5 263.5,295.5 263.5,303.5C 258.167,303.5 252.833,303.5 247.5,303.5C 247.5,295.5 247.5,287.5 247.5,279.5C 239.5,279.5 231.5,279.5 223.5,279.5C 223.5,274.167 223.5,268.833 223.5,263.5C 231.5,263.5 239.5,263.5 247.5,263.5C 247.5,255.5 247.5,247.5 247.5,239.5 Z"/></g>
<g><path style="opacity:1" fill="#000000" d="M 327.5,263.5 C 338.167,263.5 348.833,263.5 359.5,263.5C 359.5,268.833 359.5,274.167 359.5,279.5C 348.833,279.5 338.167,279.5 327.5,279.5C 327.5,274.167 327.5,268.833 327.5,263.5 Z"/></g>
<g><path style="opacity:1" fill="#000000" d="M 391.5,263.5 C 396.833,263.5 402.167,263.5 407.5,263.5C 407.5,268.833 407.5,274.167 407.5,279.5C 402.167,279.5 396.833,279.5 391.5,279.5C 391.5,274.167 391.5,268.833 391.5,263.5 Z"/></g>
<g><path style="opacity:1" fill="#000000" d="M 455.5,263.5 C 460.833,263.5 466.167,263.5 471.5,263.5C 471.5,268.833 471.5,274.167 471.5,279.5C 466.167,279.5 460.833,279.5 455.5,279.5C 455.5,274.167 455.5,268.833 455.5,263.5 Z"/></g>
<g><path style="opacity:1" fill="#000000" d="M 423.5,295.5 C 428.833,295.5 434.167,295.5 439.5,295.5C 439.5,300.833 439.5,306.167 439.5,311.5C 434.167,311.5 428.833,311.5 423.5,311.5C 423.5,306.167 423.5,300.833 423.5,295.5 Z"/></g>
<g><path style="opacity:1" fill="#000000" d="M 31.5,319.5 C 36.8333,319.5 42.1667,319.5 47.5,319.5C 47.5,324.833 47.5,330.167 47.5,335.5C 52.8333,335.5 58.1667,335.5 63.5,335.5C 63.5,340.833 63.5,346.167 63.5,351.5C 52.8333,351.5 42.1667,351.5 31.5,351.5C 31.5,340.833 31.5,330.167 31.5,319.5 Z"/></g>
</svg>
